<svg xmlns="http://www.w3.org/2000/svg" style="display: none">
  <symbol id="arrow-right" viewBox="0 0 24 24">
    <path d="M5 12h14" />
    <path d="m13 6 6 6-6 6" />
  </symbol>
  <symbol id="check" viewBox="0 0 24 24">
    <path d="m20 6-11 11-5-5" />
  </symbol>
  <symbol id="chevron-left" viewBox="0 0 24 24">
    <path d="m15 18-6-6 6-6" />
  </symbol>
  <symbol id="chevron-right" viewBox="0 0 24 24">
    <path d="m9 18 6-6-6-6" />
  </symbol>
  <symbol id="clock" viewBox="0 0 24 24">
    <circle cx="12" cy="12" r="9" />
    <path d="M12 7v5l3 2" />
  </symbol>
  <symbol id="close" viewBox="0 0 24 24">
    <path d="M18 6 6 18" />
    <path d="m6 6 12 12" />
  </symbol>
  <symbol id="error" viewBox="0 0 24 24">
    <circle cx="12" cy="12" r="9" />
    <path d="M12 8v5" />
    <path d="M12 17h.01" />
  </symbol>
  <symbol id="file" viewBox="0 0 24 24">
    <path d="M14 3H7a2 2 0 0 0-2 2v14a2 2 0 0 0 2 2h10a2 2 0 0 0 2-2V8z" />
    <path d="M14 3v5h5" />
  </symbol>
  <symbol id="form" viewBox="0 0 24 24">
    <path d="M8 6h8" />
    <path d="M8 12h8" />
    <path d="M8 18h5" />
    <rect x="4" y="3" width="16" height="18" rx="2" />
  </symbol>
  <symbol id="info" viewBox="0 0 24 24">
    <circle cx="12" cy="12" r="9" />
    <path d="M12 11v6" />
    <path d="M12 7h.01" />
  </symbol>
  <symbol id="plus" viewBox="0 0 24 24">
    <path d="M12 5v14" />
    <path d="M5 12h14" />
  </symbol>
  <symbol id="save" viewBox="0 0 24 24">
    <path d="M19 21H5a2 2 0 0 1-2-2V5a2 2 0 0 1 2-2h11l5 5v11a2 2 0 0 1-2 2Z" />
    <path d="M17 21v-8H7v8" />
    <path d="M7 3v5h8" />
  </symbol>
  <symbol id="task" viewBox="0 0 24 24">
    <path d="M9 11 11 13 15 9" />
    <path d="M8 17h8" />
    <rect x="4" y="3" width="16" height="18" rx="2" />
  </symbol>
  <symbol id="trash" viewBox="0 0 24 24">
    <path d="M3 6h18" />
    <path d="M8 6V4h8v2" />
    <path d="M19 6 18 20H6L5 6" />
    <path d="M10 11v5" />
    <path d="M14 11v5" />
  </symbol>
  <symbol id="user" viewBox="0 0 24 24">
    <circle cx="12" cy="8" r="4" />
    <path d="M4 21a8 8 0 0 1 16 0" />
  </symbol>
  <symbol id="waiver" viewBox="0 0 24 24">
    <path d="M8 4h8l4 4v12H4V4h4Z" />
    <path d="M16 4v4h4" />
    <path d="m8 15 2 2 6-6" />
  </symbol>
  <symbol id="warning" viewBox="0 0 24 24">
    <path d="m12 3 10 18H2z" />
    <path d="M12 9v5" />
    <path d="M12 18h.01" />
  </symbol>
</svg>
